<?xml version="1.0" encoding="UTF-8" standalone="no"?>
<!DOCTYPE svg PUBLIC "-//W3C//DTD SVG 1.1//EN"
 "http://www.w3.org/Graphics/SVG/1.1/DTD/svg11.dtd">
<!-- Generated by graphviz version 2.26.3 (20100126.1600)
 -->
<!-- Title: G Pages: 1 -->
<svg width="118pt" height="260pt"
 viewBox="0.00 0.00 118.00 260.00" xmlns="http://www.w3.org/2000/svg" xmlns:xlink="http://www.w3.org/1999/xlink">
<g id="graph1" class="graph" transform="scale(1 1) rotate(0) translate(4 256)">
<title>G</title>
<polygon fill="white" stroke="white" points="-4,5 -4,-256 115,-256 115,5 -4,5"/>
<g id="graph2" class="cluster"><title>cluster_Vo</title>
<polyline fill="none" stroke="gray" points="20,-8 90,-8 "/>
<path fill="none" stroke="gray" d="M90,-8C96,-8 102,-14 102,-20"/>
<polyline fill="none" stroke="gray" points="102,-20 102,-232 "/>
<path fill="none" stroke="gray" d="M102,-232C102,-238 96,-244 90,-244"/>
<polyline fill="none" stroke="gray" points="90,-244 20,-244 "/>
<path fill="none" stroke="gray" d="M20,-244C14,-244 8,-238 8,-232"/>
<polyline fill="none" stroke="gray" points="8,-232 8,-20 "/>
<path fill="none" stroke="gray" d="M8,-20C8,-14 14,-8 20,-8"/>
<text text-anchor="middle" x="55" y="-230.1" font-family="Times Roman,serif" font-size="11.00" fill="gray">Vo</text>
</g>
<!-- \\Vo\\Ip -->
<g id="node2" class="node"><title>\\Vo\\Ip</title>
<a xlink:href="Ip.html" xlink:title="Ip" target="_parent">
<polygon fill="none" stroke="black" points="82,-214 28,-214 28,-178 82,-178 82,-214"/>
<text text-anchor="middle" x="55" y="-193.1" font-family="Courier,monospace" font-size="11.00">Ip</text>
</a>
</g>
<!-- \\Vo\\Mac -->
<g id="node3" class="node"><title>\\Vo\\Mac</title>
<a xlink:href="Mac.html" xlink:title="Mac" target="_parent">
<polygon fill="none" stroke="black" points="82,-160 28,-160 28,-124 82,-124 82,-160"/>
<text text-anchor="middle" x="55" y="-139.1" font-family="Courier,monospace" font-size="11.00">Mac</text>
</a>
</g>
<!-- \\Vo\\DateRange -->
<g id="node4" class="node"><title>\\Vo\\DateRange</title>
<a xlink:href="DateRange.html" xlink:title="DateRange" target="_parent">
<polygon fill="none" stroke="black" points="93,-106 17,-106 17,-70 93,-70 93,-106"/>
<text text-anchor="middle" x="55" y="-85.1" font-family="Courier,monospace" font-size="11.00">DateRange</text>
</a>
</g>
<!-- \\Vo\\Money -->
<g id="node5" class="node"><title>\\Vo\\Money</title>
<a xlink:href="Money.html" xlink:title="Money" target="_parent">
<polygon fill="none" stroke="black" points="82,-52 28,-52 28,-16 82,-16 82,-52"/>
<text text-anchor="middle" x="55" y="-31.1" font-family="Courier,monospace" font-size="11.00">Money</text>
</a>
</g>
</g>
</svg>
