<?xml version="1.0" encoding="UTF-8" standalone="no"?>
<!DOCTYPE svg PUBLIC "-//W3C//DTD SVG 1.1//EN" "http://www.w3.org/Graphics/SVG/1.1/DTD/svg11.dtd">
<!-- Generated by graphviz version 2.26.3 (20100126.1600)
 -->
<!-- Title: Classes Pages: 1 -->
<svg xmlns="http://www.w3.org/2000/svg" xmlns:xlink="http://www.w3.org/1999/xlink" width="250pt" height="226pt">
<g id="viewport" class="graph" transform="scale(1 1) rotate(0) translate(4 221.8)">
<title>Classes</title>
<polygon fill="white" stroke="white" points="-4,5 -4,-221.8 247,-221.8 247,5 -4,5"/>
<!-- 09a15e9660c1ebc6f429d818825ce0c6 -->
<g id="node1" class="node"><title>09a15e9660c1ebc6f429d818825ce0c6</title>
<polygon fill="white" stroke="black" points="73,-156.8 1,-156.8 1,-120.8 73,-120.8 73,-156.8"/>
<text text-anchor="middle" x="37" y="-135.2" font-family="Times Roman,serif" font-size="14.00" fill="gray">stdClass</text>
</g>
<!-- e4694fadad533ba8125ebf076c006f1b -->
<g id="node2" class="node"><title>e4694fadad533ba8125ebf076c006f1b</title>
<a xlink:href="_Mac.html" xlink:title="Mac" target="_top">
<polygon fill="white" stroke="black" points="222,-215.8 168,-215.8 168,-179.8 222,-179.8 222,-215.8"/>
<text text-anchor="middle" x="195" y="-194.2" font-family="Times Roman,serif" font-size="14.00">Mac</text>
</a>
</g>
<!-- e4694fadad533ba8125ebf076c006f1b&#45;&gt;09a15e9660c1ebc6f429d818825ce0c6 -->
<g id="edge2" class="edge"><title>e4694fadad533ba8125ebf076c006f1b-&gt;09a15e9660c1ebc6f429d818825ce0c6</title>
<path fill="none" stroke="black" d="M168.053,-179.674C161.465,-175.182 154.454,-170.35 148,-165.8 131.362,-154.07 131.059,-135.326 111,-138.8"/>
</g>
<!-- 5b0486a13559e6eea6476da4eb4596a6 -->
<g id="node3" class="node"><title>5b0486a13559e6eea6476da4eb4596a6</title>
<a xlink:href="_Money.html" xlink:title="Money" target="_top">
<polygon fill="white" stroke="black" points="226,-156.8 164,-156.8 164,-120.8 226,-120.8 226,-156.8"/>
<text text-anchor="middle" x="195" y="-135.2" font-family="Times Roman,serif" font-size="14.00">Money</text>
</a>
</g>
<!-- 5b0486a13559e6eea6476da4eb4596a6&#45;&gt;09a15e9660c1ebc6f429d818825ce0c6 -->
<g id="edge4" class="edge"><title>5b0486a13559e6eea6476da4eb4596a6-&gt;09a15e9660c1ebc6f429d818825ce0c6</title>
<path fill="none" stroke="black" d="M163.667,-136.271C147.778,-135.627 128.243,-135.813 111,-138.8"/>
</g>
<!-- 4f06dc986cb9b210d2a45acd458a1d4f -->
<g id="node4" class="node"><title>4f06dc986cb9b210d2a45acd458a1d4f</title>
<a xlink:href="_DateRange.html" xlink:title="DateRange" target="_top">
<polygon fill="white" stroke="black" points="242,-96.8 148,-96.8 148,-60.8 242,-60.8 242,-96.8"/>
<text text-anchor="middle" x="195" y="-75.2" font-family="Times Roman,serif" font-size="14.00">DateRange</text>
</a>
</g>
<!-- 4f06dc986cb9b210d2a45acd458a1d4f&#45;&gt;09a15e9660c1ebc6f429d818825ce0c6 -->
<g id="edge6" class="edge"><title>4f06dc986cb9b210d2a45acd458a1d4f-&gt;09a15e9660c1ebc6f429d818825ce0c6</title>
<path fill="none" stroke="black" d="M169.082,-96.871C162.211,-101.696 154.81,-106.925 148,-111.8 131.447,-123.649 131.059,-135.326 111,-138.8"/>
</g>
<!-- 830b93276136fbdb50c201031736dd12 -->
<g id="node5" class="node"><title>830b93276136fbdb50c201031736dd12</title>
<a xlink:href="_Ip.html" xlink:title="Ip" target="_top">
<polygon fill="white" stroke="black" points="222,-37.8 168,-37.8 168,-1.8 222,-1.8 222,-37.8"/>
<text text-anchor="middle" x="195" y="-16.2" font-family="Times Roman,serif" font-size="14.00">Ip</text>
</a>
</g>
<!-- 830b93276136fbdb50c201031736dd12&#45;&gt;09a15e9660c1ebc6f429d818825ce0c6 -->
<g id="edge8" class="edge"><title>830b93276136fbdb50c201031736dd12-&gt;09a15e9660c1ebc6f429d818825ce0c6</title>
<path fill="none" stroke="black" d="M167.966,-34.3826C160.79,-39.2078 153.513,-45.0869 148,-51.8 121.332,-84.2711 152.402,-131.629 111,-138.8"/>
<path fill="none" stroke="black" d="M111,-138.8C102.263,-140.313 92.8571,-141.011 83.7792,-141.222"/>
<polygon fill="none" stroke="black" points="83.7047,-137.722 73.7221,-141.272 83.7393,-144.722 83.7047,-137.722"/>
</g>
</g>
<script xlink:href="js/SVGPan.js"/></svg>
