<?xml version="1.0" encoding="UTF-8" standalone="no"?>
<!DOCTYPE svg PUBLIC "-//W3C//DTD SVG 1.1//EN" "http://www.w3.org/Graphics/SVG/1.1/DTD/svg11.dtd">
<!-- Generated by graphviz version 2.26.3 (20100126.1600)
 -->
<!-- Title: Classes Pages: 1 -->
<svg xmlns="http://www.w3.org/2000/svg" xmlns:xlink="http://www.w3.org/1999/xlink" width="250pt" height="226pt">
<g id="viewport" class="graph" transform="scale(1 1) rotate(0) translate(4 221.8)">
<title>Classes</title>
<polygon fill="white" stroke="white" points="-4,5 -4,-221.8 247,-221.8 247,5 -4,5"/>
<!-- 09a15e9660c1ebc6f429d818825ce0c6 -->
<g id="node1" class="node"><title>09a15e9660c1ebc6f429d818825ce0c6</title>
<polygon fill="white" stroke="black" points="73,-192.56 1,-192.56 1,-156.56 73,-156.56 73,-192.56"/>
<text text-anchor="middle" x="37" y="-170.96" font-family="Times Roman,serif" font-size="14.00" fill="gray">stdClass</text>
</g>
<!-- 5b0486a13559e6eea6476da4eb4596a6 -->
<g id="node2" class="node"><title>5b0486a13559e6eea6476da4eb4596a6</title>
<a xlink:href="_Money.html" xlink:title="Money" target="_top">
<polygon fill="white" stroke="black" points="226,-192.56 164,-192.56 164,-156.56 226,-156.56 226,-192.56"/>
<text text-anchor="middle" x="195" y="-170.96" font-family="Times Roman,serif" font-size="14.00">Money</text>
</a>
</g>
<!-- 5b0486a13559e6eea6476da4eb4596a6&#45;&gt;09a15e9660c1ebc6f429d818825ce0c6 -->
<g id="edge2" class="edge"><title>5b0486a13559e6eea6476da4eb4596a6-&gt;09a15e9660c1ebc6f429d818825ce0c6</title>
<path fill="none" stroke="black" d="M163.879,-169.805C147.691,-168.504 127.825,-168.776 111,-174.56"/>
</g>
<!-- 4f06dc986cb9b210d2a45acd458a1d4f -->
<g id="node3" class="node"><title>4f06dc986cb9b210d2a45acd458a1d4f</title>
<a xlink:href="_DateRange.html" xlink:title="DateRange" target="_top">
<polygon fill="white" stroke="black" points="242,-61.56 148,-61.56 148,-25.56 242,-25.56 242,-61.56"/>
<text text-anchor="middle" x="195" y="-39.96" font-family="Times Roman,serif" font-size="14.00">DateRange</text>
</a>
</g>
<!-- 4f06dc986cb9b210d2a45acd458a1d4f&#45;&gt;09a15e9660c1ebc6f429d818825ce0c6 -->
<g id="edge4" class="edge"><title>4f06dc986cb9b210d2a45acd458a1d4f-&gt;09a15e9660c1ebc6f429d818825ce0c6</title>
<path fill="none" stroke="black" d="M186.844,-61.6524C171.061,-95.5671 135.719,-166.062 111,-174.56"/>
<path fill="none" stroke="black" d="M111,-174.56C102.438,-177.504 92.9812,-178.827 83.772,-179.198"/>
<polygon fill="none" stroke="black" points="83.5229,-175.699 73.5404,-179.249 83.5577,-182.699 83.5229,-175.699"/>
</g>
</g>
<script xlink:href="js/SVGPan.js"/></svg>
